<svg version="1.1" viewBox="0.0 0.0 965.1679790026246 528.8871391076116" fill="none" stroke="none" stroke-linecap="square" stroke-miterlimit="10" xmlns:xlink="http://www.w3.org/1999/xlink" xmlns="http://www.w3.org/2000/svg"><clipPath id="p.0"><path d="m0 0l965.16797 0l0 528.88715l-965.16797 0l0 -528.88715z" clip-rule="nonzero"/></clipPath><g clip-path="url(#p.0)"><path fill="#000000" fill-opacity="0.0" d="m0 0l965.16797 0l0 528.88715l-965.16797 0z" fill-rule="evenodd"/><path fill="#b7b7b7" d="m531.37787 253.39497l32.59845 0l0 75.023636l-32.59845 0z" fill-rule="evenodd"/><path stroke="#000000" stroke-width="2.0" stroke-linejoin="round" stroke-linecap="butt" d="m531.37787 253.39497l32.59845 0l0 75.023636l-32.59845 0z" fill-rule="evenodd"/><path fill="#b7b7b7" d="m176.52542 465.46405l25.574814 -20.283478l46.64566 58.771667l-25.574799 20.283478z" fill-rule="evenodd"/><path stroke="#000000" stroke-width="2.0" stroke-linejoin="round" stroke-linecap="butt" d="m176.52542 465.46405l25.574814 -20.283478l46.64566 58.771667l-25.574799 20.283478z" fill-rule="evenodd"/><path fill="#cfe2f3" d="m374.2979 26.19165l346.77167 0l0 236.81891l-346.77167 0z" fill-rule="evenodd"/><path stroke="#000000" stroke-width="2.0" stroke-linejoin="round" stroke-linecap="butt" d="m374.2979 26.19165l346.77167 0l0 236.81891l-346.77167 0z" fill-rule="evenodd"/><path fill="#000000" d="m467.71222 67.19165l0 -23.859375l8.953125 0q2.734375 0 4.375 0.734375q1.65625 0.71875 2.59375 2.234375q0.9375 1.5 0.9375 3.140625q0 1.53125 -0.828125 2.890625q-0.828125 1.34375 -2.5 2.171875q2.15625 0.625 3.3125 2.15625q1.171875 1.53125 1.171875 3.609375q0 1.6875 -0.703125 3.125q-0.703125 1.4375 -1.75 2.21875q-1.046875 0.78125 -2.625 1.1875q-1.5625 0.390625 -3.84375 0.390625l-9.09375 0zm3.15625 -13.828125l5.15625 0q2.109375 0 3.015625 -0.28125q1.203125 -0.359375 1.8125 -1.1875q0.609375 -0.828125 0.609375 -2.078125q0 -1.1875 -0.578125 -2.09375q-0.5625 -0.90625 -1.625 -1.234375q-1.046875 -0.34375 -3.625 -0.34375l-4.765625 0l0 7.21875zm0 11.015625l5.9375 0q1.53125 0 2.15625 -0.109375q1.09375 -0.203125 1.8125 -0.65625q0.734375 -0.453125 1.203125 -1.328125q0.484375 -0.875 0.484375 -2.015625q0 -1.328125 -0.6875 -2.3125q-0.6875 -0.984375 -1.90625 -1.375q-1.203125 -0.40625 -3.484375 -0.40625l-5.515625 0l0 8.203125zm30.104614 0.6875q-1.625 1.375 -3.125 1.953125q-1.5 0.5625 -3.234375 0.5625q-2.84375 0 -4.375 -1.390625q-1.53125 -1.390625 -1.53125 -3.5625q0 -1.265625 0.578125 -2.3125q0.578125 -1.046875 1.515625 -1.671875q0.9375 -0.640625 2.109375 -0.96875q0.859375 -0.234375 2.59375 -0.4375q3.546875 -0.421875 5.234375 -1.015625q0.015625 -0.609375 0.015625 -0.765625q0 -1.78125 -0.828125 -2.515625q-1.125 -1.0 -3.34375 -1.0q-2.0625 0 -3.046875 0.734375q-0.984375 0.71875 -1.453125 2.546875l-2.875 -0.390625q0.390625 -1.828125 1.28125 -2.953125q0.90625 -1.140625 2.59375 -1.75q1.703125 -0.609375 3.921875 -0.609375q2.21875 0 3.59375 0.53125q1.390625 0.515625 2.03125 1.3125q0.65625 0.78125 0.921875 1.984375q0.140625 0.75 0.140625 2.703125l0 3.90625q0 4.078125 0.1875 5.15625q0.1875 1.078125 0.75 2.078125l-3.0625 0q-0.453125 -0.90625 -0.59375 -2.125zm-0.234375 -6.546875q-1.59375 0.65625 -4.78125 1.109375q-1.8125 0.25 -2.5625 0.578125q-0.75 0.328125 -1.15625 0.953125q-0.40625 0.625 -0.40625 1.390625q0 1.171875 0.890625 1.953125q0.890625 0.78125 2.59375 0.78125q1.6875 0 3.0 -0.734375q1.328125 -0.75 1.953125 -2.03125q0.46875 -0.984375 0.46875 -2.921875l0 -1.078125zm6.3323975 3.515625l2.890625 -0.453125q0.25 1.734375 1.359375 2.671875q1.109375 0.921875 3.109375 0.921875q2.03125 0 3.0 -0.8125q0.984375 -0.828125 0.984375 -1.9375q0 -1.0 -0.875 -1.5625q-0.59375 -0.390625 -2.984375 -1.0q-3.234375 -0.8125 -4.484375 -1.40625q-1.234375 -0.59375 -1.875 -1.640625q-0.640625 -1.046875 -0.640625 -2.3125q0 -1.15625 0.53125 -2.140625q0.53125 -0.984375 1.4375 -1.640625q0.6875 -0.5 1.859375 -0.84375q1.1875 -0.359375 2.53125 -0.359375q2.03125 0 3.5625 0.59375q1.546875 0.578125 2.28125 1.578125q0.734375 1.0 1.015625 2.671875l-2.875 0.390625q-0.1875 -1.328125 -1.125 -2.078125q-0.9375 -0.75 -2.640625 -0.75q-2.03125 0 -2.890625 0.671875q-0.859375 0.65625 -0.859375 1.5625q0 0.5625 0.359375 1.015625q0.359375 0.484375 1.125 0.78125q0.4375 0.171875 2.578125 0.75q3.109375 0.828125 4.34375 1.359375q1.234375 0.53125 1.921875 1.546875q0.703125 1.0 0.703125 2.5q0 1.46875 -0.859375 2.765625q-0.84375 1.28125 -2.453125 2.0q-1.609375 0.703125 -3.65625 0.703125q-3.359375 0 -5.125 -1.390625q-1.765625 -1.40625 -2.25 -4.15625zm16.664062 0l2.890625 -0.453125q0.25 1.734375 1.359375 2.671875q1.109375 0.921875 3.109375 0.921875q2.03125 0 3.0 -0.8125q0.984375 -0.828125 0.984375 -1.9375q0 -1.0 -0.875 -1.5625q-0.59375 -0.390625 -2.984375 -1.0q-3.234375 -0.8125 -4.484375 -1.40625q-1.234375 -0.59375 -1.875 -1.640625q-0.640625 -1.046875 -0.640625 -2.3125q0 -1.15625 0.53125 -2.140625q0.53125 -0.984375 1.4375 -1.640625q0.6875 -0.5 1.859375 -0.84375q1.1875 -0.359375 2.53125 -0.359375q2.03125 0 3.5625 0.59375q1.546875 0.578125 2.28125 1.578125q0.734375 1.0 1.015625 2.671875l-2.875 0.390625q-0.1875 -1.328125 -1.125 -2.078125q-0.9375 -0.75 -2.640625 -0.75q-2.03125 0 -2.890625 0.671875q-0.859375 0.65625 -0.859375 1.5625q0 0.5625 0.359375 1.015625q0.359375 0.484375 1.125 0.78125q0.4375 0.171875 2.578125 0.75q3.109375 0.828125 4.34375 1.359375q1.234375 0.53125 1.921875 1.546875q0.703125 1.0 0.703125 2.5q0 1.46875 -0.859375 2.765625q-0.84375 1.28125 -2.453125 2.0q-1.609375 0.703125 -3.65625 0.703125q-3.359375 0 -5.125 -1.390625q-1.765625 -1.40625 -2.25 -4.15625zm27.470581 5.15625l0 -23.859375l8.21875 0q2.78125 0 4.234375 0.34375q2.0625 0.46875 3.5 1.703125q1.890625 1.59375 2.828125 4.078125q0.9375 2.484375 0.9375 5.671875q0 2.71875 -0.640625 4.828125q-0.625 2.09375 -1.625 3.46875q-0.984375 1.375 -2.171875 2.171875q-1.171875 0.78125 -2.84375 1.1875q-1.671875 0.40625 -3.828125 0.40625l-8.609375 0zm3.15625 -2.8125l5.09375 0q2.359375 0 3.6875 -0.4375q1.34375 -0.4375 2.15625 -1.234375q1.109375 -1.125 1.734375 -3.015625q0.640625 -1.90625 0.640625 -4.609375q0 -3.734375 -1.234375 -5.75q-1.234375 -2.015625 -2.984375 -2.6875q-1.265625 -0.5 -4.09375 -0.5l-5.0 0l0 18.234375zm20.505981 2.8125l0 -17.28125l2.625 0l0 2.625q1.015625 -1.84375 1.859375 -2.421875q0.859375 -0.59375 1.890625 -0.59375q1.484375 0 3.0 0.9375l-1.0 2.71875q-1.078125 -0.625 -2.15625 -0.625q-0.953125 0 -1.71875 0.578125q-0.765625 0.578125 -1.09375 1.59375q-0.484375 1.5625 -0.484375 3.421875l0 9.046875l-2.921875 0zm22.44226 0l0 -2.53125q-2.015625 2.921875 -5.46875 2.921875q-1.53125 0 -2.859375 -0.578125q-1.328125 -0.59375 -1.96875 -1.484375q-0.640625 -0.890625 -0.90625 -2.171875q-0.1875 -0.859375 -0.1875 -2.734375l0 -10.703125l2.9375 0l0 9.578125q0 2.296875 0.171875 3.09375q0.28125 1.15625 1.171875 1.828125q0.90625 0.65625 2.21875 0.65625q1.3125 0 2.46875 -0.671875q1.15625 -0.6875 1.640625 -1.84375q0.484375 -1.171875 0.484375 -3.375l0 -9.265625l2.921875 0l0 17.28125l-2.625 0zm7.2230225 0l0 -17.28125l2.609375 0l0 2.421875q0.8125 -1.265625 2.15625 -2.03125q1.359375 -0.78125 3.09375 -0.78125q1.921875 0 3.140625 0.796875q1.234375 0.796875 1.734375 2.234375q2.046875 -3.03125 5.34375 -3.03125q2.5625 0 3.9375 1.421875q1.390625 1.421875 1.390625 4.390625l0 11.859375l-2.90625 0l0 -10.890625q0 -1.75 -0.296875 -2.515625q-0.28125 -0.78125 -1.03125 -1.25q-0.734375 -0.484375 -1.75 -0.484375q-1.828125 0 -3.03125 1.21875q-1.203125 1.21875 -1.203125 3.875l0 10.046875l-2.921875 0l0 -11.234375q0 -1.953125 -0.71875 -2.921875q-0.71875 -0.984375 -2.34375 -0.984375q-1.234375 0 -2.296875 0.65625q-1.046875 0.65625 -1.515625 1.90625q-0.46875 1.25 -0.46875 3.609375l0 8.96875l-2.921875 0z" fill-rule="nonzero"/><path fill="#f3f3f3" d="m257.25165 381.42358l0 0c0 -65.39575 53.013702 -118.409454 118.409424 -118.409454l0 0c31.404144 0 61.522064 12.47525 83.72815 34.681335c22.206055 22.206055 34.681305 52.323975 34.681305 83.72812l0 0c0 65.39572 -53.013702 118.409454 -118.409454 118.409454l0 0c-65.39572 0 -118.409424 -53.013733 -118.409424 -118.409454z" fill-rule="evenodd"/><path stroke="#000000" stroke-width="2.0" stroke-linejoin="round" stroke-linecap="butt" d="m257.25165 381.42358l0 0c0 -65.39575 53.013702 -118.409454 118.409424 -118.409454l0 0c31.404144 0 61.522064 12.47525 83.72815 34.681335c22.206055 22.206055 34.681305 52.323975 34.681305 83.72812l0 0c0 65.39572 -53.013702 118.409454 -118.409454 118.409454l0 0c-65.39572 0 -118.409424 -53.013733 -118.409424 -118.409454z" fill-rule="evenodd"/><path fill="#000000" d="m332.69373 365.7517l2.96875 -0.25q0.21875 1.78125 0.984375 2.9375q0.78125 1.140625 2.40625 1.859375q1.625 0.703125 3.65625 0.703125q1.8125 0 3.1875 -0.53125q1.390625 -0.546875 2.0625 -1.484375q0.671875 -0.9375 0.671875 -2.046875q0 -1.109375 -0.65625 -1.953125q-0.640625 -0.84375 -2.140625 -1.40625q-0.953125 -0.375 -4.25 -1.15625q-3.28125 -0.796875 -4.59375 -1.5q-1.71875 -0.890625 -2.5625 -2.21875q-0.828125 -1.328125 -0.828125 -2.96875q0 -1.8125 1.015625 -3.375q1.03125 -1.578125 3.0 -2.390625q1.96875 -0.8125 4.390625 -0.8125q2.640625 0 4.671875 0.859375q2.03125 0.84375 3.109375 2.515625q1.09375 1.65625 1.171875 3.75l-3.015625 0.234375q-0.25 -2.265625 -1.65625 -3.421875q-1.40625 -1.15625 -4.15625 -1.15625q-2.859375 0 -4.171875 1.0625q-1.3125 1.046875 -1.3125 2.515625q0 1.296875 0.921875 2.125q0.921875 0.828125 4.765625 1.703125q3.84375 0.859375 5.28125 1.515625q2.078125 0.953125 3.0625 2.4375q1.0 1.46875 1.0 3.390625q0 1.90625 -1.09375 3.59375q-1.078125 1.671875 -3.125 2.609375q-2.046875 0.9375 -4.59375 0.9375q-3.25 0 -5.4375 -0.9375q-2.1875 -0.953125 -3.4375 -2.84375q-1.234375 -1.890625 -1.296875 -4.296875zm22.93274 7.671875l0 -17.28125l2.625 0l0 2.453125q1.90625 -2.84375 5.5 -2.84375q1.5625 0 2.875 0.5625q1.3125 0.5625 1.953125 1.46875q0.65625 0.90625 0.921875 2.171875q0.15625 0.8125 0.15625 2.84375l0 10.625l-2.921875 0l0 -10.515625q0 -1.78125 -0.34375 -2.671875q-0.34375 -0.890625 -1.21875 -1.421875q-0.859375 -0.53125 -2.03125 -0.53125q-1.875 0 -3.234375 1.1875q-1.359375 1.1875 -1.359375 4.515625l0 9.4375l-2.921875 0zm29.801147 -2.125q-1.625 1.375 -3.125 1.953125q-1.5 0.5625 -3.234375 0.5625q-2.84375 0 -4.375 -1.390625q-1.53125 -1.390625 -1.53125 -3.5625q0 -1.265625 0.578125 -2.3125q0.578125 -1.046875 1.515625 -1.671875q0.9375 -0.640625 2.109375 -0.96875q0.859375 -0.234375 2.59375 -0.4375q3.546875 -0.421875 5.234375 -1.015625q0.015625 -0.609375 0.015625 -0.765625q0 -1.78125 -0.828125 -2.515625q-1.125 -1.0 -3.34375 -1.0q-2.0625 0 -3.046875 0.734375q-0.984375 0.71875 -1.453125 2.546875l-2.875 -0.390625q0.390625 -1.828125 1.28125 -2.953125q0.90625 -1.140625 2.59375 -1.75q1.703125 -0.609375 3.921875 -0.609375q2.21875 0 3.59375 0.53125q1.390625 0.515625 2.03125 1.3125q0.65625 0.78125 0.921875 1.984375q0.140625 0.75 0.140625 2.703125l0 3.90625q0 4.078125 0.1875 5.15625q0.1875 1.078125 0.75 2.078125l-3.0625 0q-0.453125 -0.90625 -0.59375 -2.125zm-0.234375 -6.546875q-1.59375 0.65625 -4.78125 1.109375q-1.8125 0.25 -2.5625 0.578125q-0.75 0.328125 -1.15625 0.953125q-0.40625 0.625 -0.40625 1.390625q0 1.171875 0.890625 1.953125q0.890625 0.78125 2.59375 0.78125q1.6875 0 3.0 -0.734375q1.328125 -0.75 1.953125 -2.03125q0.46875 -0.984375 0.46875 -2.921875l0 -1.078125zm7.4730225 8.671875l0 -17.28125l2.625 0l0 2.625q1.015625 -1.84375 1.859375 -2.421875q0.859375 -0.59375 1.890625 -0.59375q1.484375 0 3.0 0.9375l-1.0 2.71875q-1.078125 -0.625 -2.15625 -0.625q-0.953125 0 -1.71875 0.578125q-0.765625 0.578125 -1.09375 1.59375q-0.484375 1.5625 -0.484375 3.421875l0 9.046875l-2.921875 0zm22.957886 -5.5625l3.015625 0.375q-0.703125 2.65625 -2.640625 4.125q-1.9375 1.453125 -4.953125 1.453125q-3.796875 0 -6.015625 -2.328125q-2.21875 -2.34375 -2.21875 -6.5625q0 -4.359375 2.25 -6.765625q2.25 -2.40625 5.828125 -2.40625q3.46875 0 5.65625 2.359375q2.203125 2.359375 2.203125 6.640625q0 0.265625 -0.015625 0.78125l-12.890625 0q0.15625 2.84375 1.609375 4.359375q1.453125 1.515625 3.609375 1.515625q1.609375 0 2.75 -0.84375q1.140625 -0.84375 1.8125 -2.703125zm-9.625 -4.734375l9.65625 0q-0.203125 -2.1875 -1.109375 -3.28125q-1.40625 -1.6875 -3.625 -1.6875q-2.015625 0 -3.390625 1.359375q-1.375 1.34375 -1.53125 3.609375z" fill-rule="nonzero"/><path fill="#000000" d="m337.50662 413.42358l0 -23.859375l8.21875 0q2.78125 0 4.234375 0.34375q2.0625 0.46875 3.5 1.703125q1.890625 1.59375 2.828125 4.078125q0.9375 2.484375 0.9375 5.671875q0 2.71875 -0.640625 4.828125q-0.625 2.09375 -1.625 3.46875q-0.984375 1.375 -2.171875 2.171875q-1.171875 0.78125 -2.84375 1.1875q-1.671875 0.40625 -3.828125 0.40625l-8.609375 0zm3.15625 -2.8125l5.09375 0q2.359375 0 3.6875 -0.4375q1.34375 -0.4375 2.15625 -1.234375q1.109375 -1.125 1.734375 -3.015625q0.640625 -1.90625 0.640625 -4.609375q0 -3.734375 -1.234375 -5.75q-1.234375 -2.015625 -2.984375 -2.6875q-1.265625 -0.5 -4.09375 -0.5l-5.0 0l0 18.234375zm20.506012 2.8125l0 -17.28125l2.625 0l0 2.625q1.015625 -1.84375 1.859375 -2.421875q0.859375 -0.59375 1.890625 -0.59375q1.484375 0 3.0 0.9375l-1.0 2.71875q-1.078125 -0.625 -2.15625 -0.625q-0.953125 0 -1.71875 0.578125q-0.765625 0.578125 -1.09375 1.59375q-0.484375 1.5625 -0.484375 3.421875l0 9.046875l-2.921875 0zm22.442291 0l0 -2.53125q-2.015625 2.921875 -5.46875 2.921875q-1.53125 0 -2.859375 -0.578125q-1.328125 -0.59375 -1.96875 -1.484375q-0.640625 -0.890625 -0.90625 -2.171875q-0.1875 -0.859375 -0.1875 -2.734375l0 -10.703125l2.9375 0l0 9.578125q0 2.296875 0.171875 3.09375q0.28125 1.15625 1.171875 1.828125q0.90625 0.65625 2.21875 0.65625q1.3125 0 2.46875 -0.671875q1.15625 -0.6875 1.640625 -1.84375q0.484375 -1.171875 0.484375 -3.375l0 -9.265625l2.921875 0l0 17.28125l-2.625 0zm7.2230225 0l0 -17.28125l2.609375 0l0 2.421875q0.8125 -1.265625 2.15625 -2.03125q1.359375 -0.78125 3.09375 -0.78125q1.921875 0 3.140625 0.796875q1.234375 0.796875 1.734375 2.234375q2.046875 -3.03125 5.34375 -3.03125q2.5625 0 3.9375 1.421875q1.390625 1.421875 1.390625 4.390625l0 11.859375l-2.90625 0l0 -10.890625q0 -1.75 -0.296875 -2.515625q-0.28125 -0.78125 -1.03125 -1.25q-0.734375 -0.484375 -1.75 -0.484375q-1.828125 0 -3.03125 1.21875q-1.203125 1.21875 -1.203125 3.875l0 10.046875l-2.921875 0l0 -11.234375q0 -1.953125 -0.71875 -2.921875q-0.71875 -0.984375 -2.34375 -0.984375q-1.234375 0 -2.296875 0.65625q-1.046875 0.65625 -1.515625 1.90625q-0.46875 1.25 -0.46875 3.609375l0 8.96875l-2.921875 0z" fill-rule="nonzero"/><path fill="#f3f3f3" d="m369.66812 171.50616l0 0c0 -44.643738 36.190918 -80.83464 80.834656 -80.83464l0 0c21.43869 0 41.9993 8.516487 57.158722 23.675919c15.159424 15.159439 23.675903 35.720047 23.675903 57.158722l0 0c0 44.643753 -36.190887 80.834656 -80.834625 80.834656l0 0c-44.643738 0 -80.834656 -36.190903 -80.834656 -80.834656z" fill-rule="evenodd"/><path stroke="#000000" stroke-width="2.0" stroke-linejoin="round" stroke-linecap="butt" d="m369.66812 171.50616l0 0c0 -44.643738 36.190918 -80.83464 80.834656 -80.83464l0 0c21.43869 0 41.9993 8.516487 57.158722 23.675919c15.159424 15.159439 23.675903 35.720047 23.675903 57.158722l0 0c0 44.643753 -36.190887 80.834656 -80.834625 80.834656l0 0c-44.643738 0 -80.834656 -36.190903 -80.834656 -80.834656z" fill-rule="evenodd"/><path fill="#000000" d="m418.90265 163.50616l0 -23.859375l3.15625 0l0 9.796875l12.390625 0l0 -9.796875l3.171875 0l0 23.859375l-3.171875 0l0 -11.25l-12.390625 0l0 11.25l-3.15625 0zm23.615387 -20.484375l0 -3.375l2.921875 0l0 3.375l-2.921875 0zm0 20.484375l0 -17.28125l2.921875 0l0 17.28125l-2.921875 0zm6.8419495 1.4375l2.84375 0.421875q0.1875 1.3125 1.0 1.921875q1.09375 0.8125 2.984375 0.8125q2.03125 0 3.125 -0.8125q1.109375 -0.8125 1.5 -2.28125q0.234375 -0.890625 0.21875 -3.765625q-1.921875 2.265625 -4.78125 2.265625q-3.5625 0 -5.515625 -2.5625q-1.953125 -2.578125 -1.953125 -6.171875q0 -2.484375 0.890625 -4.5625q0.890625 -2.09375 2.59375 -3.234375q1.703125 -1.140625 4.0 -1.140625q3.0625 0 5.046875 2.46875l0 -2.078125l2.703125 0l0 14.9375q0 4.03125 -0.828125 5.71875q-0.828125 1.6875 -2.609375 2.65625q-1.78125 0.984375 -4.375 0.984375q-3.09375 0 -5.0 -1.390625q-1.90625 -1.390625 -1.84375 -4.1875zm2.421875 -10.390625q0 3.40625 1.34375 4.96875q1.359375 1.5625 3.390625 1.5625q2.03125 0 3.390625 -1.546875q1.375 -1.5625 1.375 -4.890625q0 -3.171875 -1.421875 -4.78125q-1.40625 -1.609375 -3.390625 -1.609375q-1.953125 0 -3.328125 1.59375q-1.359375 1.578125 -1.359375 4.703125zm16.660522 8.953125l0 -23.859375l2.921875 0l0 8.5625q2.046875 -2.375 5.171875 -2.375q1.921875 0 3.328125 0.765625q1.421875 0.75 2.03125 2.09375q0.625 1.328125 0.625 3.859375l0 10.953125l-2.9375 0l0 -10.953125q0 -2.203125 -0.953125 -3.203125q-0.953125 -1.0 -2.6875 -1.0q-1.3125 0 -2.453125 0.6875q-1.140625 0.671875 -1.640625 1.828125q-0.484375 1.15625 -0.484375 3.1875l0 9.453125l-2.921875 0z" fill-rule="nonzero"/><path fill="#000000" d="m427.6626 203.50616l0 -21.046875l-7.859375 0l0 -2.8125l18.90625 0l0 2.8125l-7.890625 0l0 21.046875l-3.15625 0zm9.132263 -8.640625q0 -4.796875 2.671875 -7.109375q2.21875 -1.921875 5.421875 -1.921875q3.578125 0 5.828125 2.34375q2.265625 2.328125 2.265625 6.4375q0 3.34375 -1.0 5.265625q-1.0 1.90625 -2.921875 2.96875q-1.90625 1.046875 -4.171875 1.046875q-3.625 0 -5.859375 -2.328125q-2.234375 -2.328125 -2.234375 -6.703125zm3.015625 0q0 3.3125 1.4375 4.96875q1.453125 1.65625 3.640625 1.65625q2.1875 0 3.625 -1.65625q1.453125 -1.671875 1.453125 -5.0625q0 -3.203125 -1.453125 -4.859375q-1.453125 -1.65625 -3.625 -1.65625q-2.1875 0 -3.640625 1.640625q-1.4375 1.640625 -1.4375 4.96875zm16.613647 8.640625l0 -17.28125l2.6093445 0l0 2.421875q0.8125 -1.265625 2.15625 -2.03125q1.359375 -0.78125 3.09375 -0.78125q1.921875 0 3.140625 0.796875q1.234375 0.796875 1.734375 2.234375q2.046875 -3.03125 5.34375 -3.03125q2.5625 0 3.9375 1.421875q1.390625 1.421875 1.390625 4.390625l0 11.859375l-2.90625 0l0 -10.890625q0 -1.75 -0.296875 -2.515625q-0.28125 -0.78125 -1.03125 -1.25q-0.734375 -0.484375 -1.75 -0.484375q-1.828125 0 -3.03125 1.21875q-1.203125 1.21875 -1.203125 3.875l0 10.046875l-2.921875 0l0 -11.234375q0 -1.953125 -0.71875 -2.921875q-0.71875 -0.984375 -2.34375 -0.984375q-1.234375 0 -2.296875 0.65625q-1.046875 0.65625 -1.515625 1.90625q-0.46875 1.25 -0.46875 3.609375l0 8.96875l-2.9218445 0z" fill-rule="nonzero"/><path fill="#f3f3f3" d="m537.992 171.4898l0 0c0 -50.54928 40.97827 -91.527565 91.52759 -91.527565l0 0c24.274597 0 47.554993 9.643059 64.71973 26.807808c17.164734 17.164742 26.8078 40.44513 26.8078 64.71976l0 0c0 50.54927 -40.97827 91.52756 -91.52753 91.52756l0 0c-50.549316 0 -91.52759 -40.978287 -91.52759 -91.52756z" fill-rule="evenodd"/><path stroke="#000000" stroke-width="2.0" stroke-linejoin="round" stroke-linecap="butt" d="m537.992 171.4898l0 0c0 -50.54928 40.97827 -91.527565 91.52759 -91.527565l0 0c24.274597 0 47.554993 9.643059 64.71973 26.807808c17.164734 17.164742 26.8078 40.44513 26.8078 64.71976l0 0c0 50.54927 -40.97827 91.52756 -91.52753 91.52756l0 0c-50.549316 0 -91.52759 -40.978287 -91.52759 -91.52756z" fill-rule="evenodd"/><path fill="#000000" d="m605.137 163.4898l0 -23.859375l4.75 0l5.65625 16.890625q0.78125 2.359375 1.140625 3.53125q0.40625 -1.296875 1.265625 -3.828125l5.71875 -16.59375l4.234375 0l0 23.859375l-3.03125 0l0 -19.96875l-6.9375 19.96875l-2.84375 0l-6.90625 -20.3125l0 20.3125l-3.046875 0zm27.512634 -20.484375l0 -3.375l2.921875 0l0 3.375l-2.921875 0zm0 20.484375l0 -17.28125l2.921875 0l0 17.28125l-2.921875 0zm18.591919 0l0 -2.1875q-1.640625 2.578125 -4.828125 2.578125q-2.0625 0 -3.796875 -1.140625q-1.734375 -1.140625 -2.6875 -3.171875q-0.953125 -2.046875 -0.953125 -4.703125q0 -2.59375 0.859375 -4.6875q0.859375 -2.109375 2.578125 -3.234375q1.734375 -1.125 3.875 -1.125q1.5625 0 2.78125 0.65625q1.21875 0.65625 1.984375 1.71875l0 -8.5625l2.90625 0l0 23.859375l-2.71875 0zm-9.25 -8.625q0 3.3125 1.390625 4.96875q1.40625 1.640625 3.3125 1.640625q1.90625 0 3.25 -1.5625q1.34375 -1.578125 1.34375 -4.796875q0 -3.546875 -1.375 -5.203125q-1.359375 -1.671875 -3.359375 -1.671875q-1.953125 0 -3.265625 1.59375q-1.296875 1.59375 -1.296875 5.03125z" fill-rule="nonzero"/><path fill="#000000" d="m606.6794 203.4898l0 -21.046875l-7.859375 0l0 -2.8125l18.90625 0l0 2.8125l-7.890625 0l0 21.046875l-3.15625 0zm9.132263 -8.640625q0 -4.796875 2.671875 -7.109375q2.21875 -1.921875 5.421875 -1.921875q3.578125 0 5.828125 2.34375q2.265625 2.328125 2.265625 6.4375q0 3.34375 -1.0 5.265625q-1.0 1.90625 -2.921875 2.96875q-1.90625 1.046875 -4.171875 1.046875q-3.625 0 -5.859375 -2.328125q-2.234375 -2.328125 -2.234375 -6.703125zm3.015625 0q0 3.3125 1.4375 4.96875q1.453125 1.65625 3.640625 1.65625q2.1875 0 3.625 -1.65625q1.453125 -1.671875 1.453125 -5.0625q0 -3.203125 -1.453125 -4.859375q-1.453125 -1.65625 -3.625 -1.65625q-2.1875 0 -3.640625 1.640625q-1.4375 1.640625 -1.4375 4.96875zm16.613647 8.640625l0 -17.28125l2.609375 0l0 2.421875q0.8125 -1.265625 2.15625 -2.03125q1.359375 -0.78125 3.09375 -0.78125q1.921875 0 3.140625 0.796875q1.234375 0.796875 1.734375 2.234375q2.046875 -3.03125 5.34375 -3.03125q2.5625 0 3.9375 1.421875q1.390625 1.421875 1.390625 4.390625l0 11.859375l-2.90625 0l0 -10.890625q0 -1.75 -0.296875 -2.515625q-0.28125 -0.78125 -1.03125 -1.25q-0.734375 -0.484375 -1.75 -0.484375q-1.828125 0 -3.03125 1.21875q-1.203125 1.21875 -1.203125 3.875l0 10.046875l-2.921875 0l0 -11.234375q0 -1.953125 -0.71875 -2.921875q-0.71875 -0.984375 -2.34375 -0.984375q-1.234375 0 -2.296875 0.65625q-1.046875 0.65625 -1.515625 1.90625q-0.46875 1.25 -0.46875 3.609375l0 8.96875l-2.921875 0z" fill-rule="nonzero"/><path fill="#f3f3f3" d="m635.4433 387.42358l0 0c0 -68.70944 55.700012 -124.409454 124.409424 -124.409454l0 0c32.995422 0 64.639465 13.107391 87.970764 36.43869c23.331299 23.331299 36.43872 54.97531 36.43872 87.970764l0 0c0 68.70944 -55.700012 124.409454 -124.409485 124.409454l0 0c-68.70941 0 -124.409424 -55.700012 -124.409424 -124.409454z" fill-rule="evenodd"/><path stroke="#000000" stroke-width="2.0" stroke-linejoin="round" stroke-linecap="butt" d="m635.4433 387.42358l0 0c0 -68.70944 55.700012 -124.409454 124.409424 -124.409454l0 0c32.995422 0 64.639465 13.107391 87.970764 36.43869c23.331299 23.331299 36.43872 54.97531 36.43872 87.970764l0 0c0 68.70944 -55.700012 124.409454 -124.409485 124.409454l0 0c-68.70941 0 -124.409424 -55.700012 -124.409424 -124.409454z" fill-rule="evenodd"/><path fill="#000000" d="m724.62103 379.42358l0 -23.859375l16.09375 0l0 2.8125l-12.9375 0l0 7.390625l11.203125 0l0 2.8125l-11.203125 0l0 10.84375l-3.15625 0zm19.74878 0l0 -23.859375l2.9375 0l0 23.859375l-2.9375 0zm6.388794 -8.640625q0 -4.796875 2.671875 -7.109375q2.21875 -1.921875 5.421875 -1.921875q3.578125 0 5.828125 2.34375q2.265625 2.328125 2.265625 6.4375q0 3.34375 -1.0 5.265625q-1.0 1.90625 -2.921875 2.96875q-1.90625 1.046875 -4.171875 1.046875q-3.625 0 -5.859375 -2.328125q-2.234375 -2.328125 -2.234375 -6.703125zm3.015625 0q0 3.3125 1.4375 4.96875q1.453125 1.65625 3.640625 1.65625q2.1875 0 3.625 -1.65625q1.453125 -1.671875 1.453125 -5.0625q0 -3.203125 -1.453125 -4.859375q-1.453125 -1.65625 -3.625 -1.65625q-2.1875 0 -3.640625 1.640625q-1.4375 1.640625 -1.4375 4.96875zm15.519897 0q0 -4.796875 2.671875 -7.109375q2.21875 -1.921875 5.421875 -1.921875q3.578125 0 5.828125 2.34375q2.265625 2.328125 2.265625 6.4375q0 3.34375 -1.0 5.265625q-1.0 1.90625 -2.921875 2.96875q-1.90625 1.046875 -4.171875 1.046875q-3.625 0 -5.859375 -2.328125q-2.234375 -2.328125 -2.234375 -6.703125zm3.015625 0q0 3.3125 1.4375 4.96875q1.453125 1.65625 3.640625 1.65625q2.1875 0 3.625 -1.65625q1.453125 -1.671875 1.453125 -5.0625q0 -3.203125 -1.453125 -4.859375q-1.453125 -1.65625 -3.625 -1.65625q-2.1875 0 -3.640625 1.640625q-1.4375 1.640625 -1.4375 4.96875zm16.582397 8.640625l0 -17.28125l2.625 0l0 2.625q1.015625 -1.84375 1.859375 -2.421875q0.859375 -0.59375 1.890625 -0.59375q1.484375 0 3.0 0.9375l-1.0 2.71875q-1.078125 -0.625 -2.15625 -0.625q-0.953125 0 -1.71875 0.578125q-0.765625 0.578125 -1.09375 1.59375q-0.484375 1.5625 -0.484375 3.421875l0 9.046875l-2.921875 0z" fill-rule="nonzero"/><path fill="#000000" d="m737.0126 419.42358l0 -21.046875l-7.859375 0l0 -2.8125l18.90625 0l0 2.8125l-7.890625 0l0 21.046875l-3.15625 0zm9.132202 -8.640625q0 -4.796875 2.671875 -7.109375q2.21875 -1.921875 5.421875 -1.921875q3.578125 0 5.828125 2.34375q2.265625 2.328125 2.265625 6.4375q0 3.34375 -1.0 5.265625q-1.0 1.90625 -2.921875 2.96875q-1.90625 1.046875 -4.171875 1.046875q-3.625 0 -5.859375 -2.328125q-2.234375 -2.328125 -2.234375 -6.703125zm3.015625 0q0 3.3125 1.4375 4.96875q1.453125 1.65625 3.640625 1.65625q2.1875 0 3.625 -1.65625q1.453125 -1.671875 1.453125 -5.0625q0 -3.203125 -1.453125 -4.859375q-1.453125 -1.65625 -3.625 -1.65625q-2.1875 0 -3.640625 1.640625q-1.4375 1.640625 -1.4375 4.96875zm16.613647 8.640625l0 -17.28125l2.609375 0l0 2.421875q0.8125 -1.265625 2.15625 -2.03125q1.359375 -0.78125 3.09375 -0.78125q1.921875 0 3.140625 0.796875q1.234375 0.796875 1.734375 2.234375q2.046875 -3.03125 5.34375 -3.03125q2.5625 0 3.9375 1.421875q1.390625 1.421875 1.390625 4.390625l0 11.859375l-2.90625 0l0 -10.890625q0 -1.75 -0.296875 -2.515625q-0.28125 -0.78125 -1.03125 -1.25q-0.734375 -0.484375 -1.75 -0.484375q-1.828125 0 -3.03125 1.21875q-1.203125 1.21875 -1.203125 3.875l0 10.046875l-2.921875 0l0 -11.234375q0 -1.953125 -0.71875 -2.921875q-0.71875 -0.984375 -2.34375 -0.984375q-1.234375 0 -2.296875 0.65625q-1.046875 0.65625 -1.515625 1.90625q-0.46875 1.25 -0.46875 3.609375l0 8.96875l-2.921875 0z" fill-rule="nonzero"/><defs><radialGradient id="p.1" gradientUnits="userSpaceOnUse" gradientTransform="matrix(12.940488864433405 0.0 0.0 12.940488864433405 0.0 0.0)" spreadMethod="pad" cx="9.349989756009704" cy="28.517335519210814" fx="9.349989756009704" fy="28.517335519210814" r="12.940488815307617"><stop offset="0.0" stop-color="#fff6db"/><stop offset="1.0" stop-color="#fad25c"/></radialGradient></defs><path fill="url(#p.1)" d="m2.5839896 369.02826l0 0c0 -65.39572 53.013718 -118.40944 118.40945 -118.40944l0 0c31.404144 0 61.52205 12.475235 83.72812 34.68132c22.206085 22.206085 34.681335 52.323975 34.681335 83.72812l0 0c0 65.39572 -53.013718 118.409454 -118.409454 118.409454l0 0c-65.39574 0 -118.40945 -53.013733 -118.40945 -118.409454z" fill-rule="evenodd"/><path stroke="#000000" stroke-width="2.0" stroke-linejoin="round" stroke-linecap="butt" d="m2.5839896 369.02826l0 0c0 -65.39572 53.013718 -118.40944 118.40945 -118.40944l0 0c31.404144 0 61.52205 12.475235 83.72812 34.68132c22.206085 22.206085 34.681335 52.323975 34.681335 83.72812l0 0c0 65.39572 -53.013718 118.409454 -118.409454 118.409454l0 0c-65.39574 0 -118.40945 -53.013733 -118.40945 -118.409454z" fill-rule="evenodd"/><path fill="#000000" d="m107.92883 341.02826l0 -23.859375l3.15625 0l0 9.796875l12.390625 0l0 -9.796875l3.171875 0l0 23.859375l-3.171875 0l0 -11.25l-12.390625 0l0 11.25l-3.15625 0zm23.615387 -20.484375l0 -3.375l2.921875 0l0 3.375l-2.921875 0zm0 20.484375l0 -17.28125l2.921875 0l0 17.28125l-2.921875 0z" fill-rule="nonzero"/><path fill="#000000" d="m89.40145 421.02826l0 -23.859375l3.15625 0l0 9.796875l12.390625 0l0 -9.796875l3.171875 0l0 23.859375l-3.171875 0l0 -11.25l-12.390625 0l0 11.25l-3.15625 0zm34.865387 -2.125q-1.625 1.375 -3.125 1.953125q-1.5 0.5625 -3.234375 0.5625q-2.84375 0 -4.375 -1.390625q-1.53125 -1.390625 -1.53125 -3.5625q0 -1.265625 0.578125 -2.3125q0.578125 -1.046875 1.515625 -1.671875q0.9375 -0.640625 2.109375 -0.96875q0.859375 -0.234375 2.59375 -0.4375q3.546875 -0.421875 5.234375 -1.015625q0.015625 -0.609375 0.015625 -0.765625q0 -1.78125 -0.828125 -2.515625q-1.125 -1.0 -3.34375 -1.0q-2.0625 0 -3.046875 0.734375q-0.984375 0.71875 -1.453125 2.546875l-2.875 -0.390625q0.390625 -1.828125 1.28125 -2.953125q0.90625 -1.140625 2.59375 -1.75q1.703125 -0.609375 3.921875 -0.609375q2.21875 0 3.59375 0.53125q1.390625 0.515625 2.03125 1.3125q0.65625 0.78125 0.921875 1.984375q0.140625 0.75 0.140625 2.703125l0 3.90625q0 4.078125 0.1875 5.15625q0.1875 1.078125 0.75 2.078125l-3.0625 0q-0.453125 -0.90625 -0.59375 -2.125zm-0.234375 -6.546875q-1.59375 0.65625 -4.78125 1.109375q-1.8125 0.25 -2.5625 0.578125q-0.75 0.328125 -1.15625 0.953125q-0.40625 0.625 -0.40625 1.390625q0 1.171875 0.890625 1.953125q0.890625 0.78125 2.59375 0.78125q1.6875 0 3.0 -0.734375q1.328125 -0.75 1.953125 -2.03125q0.46875 -0.984375 0.46875 -2.921875l0 -1.078125zm13.894905 6.046875l0.421875 2.59375q-1.234375 0.265625 -2.21875 0.265625q-1.59375 0 -2.46875 -0.5q-0.875 -0.515625 -1.234375 -1.328125q-0.359375 -0.828125 -0.359375 -3.46875l0 -9.9375l-2.15625 0l0 -2.28125l2.15625 0l0 -4.28125l2.90625 -1.75l0 6.03125l2.953125 0l0 2.28125l-2.953125 0l0 10.109375q0 1.25 0.15625 1.609375q0.15625 0.359375 0.5 0.578125q0.359375 0.203125 1.015625 0.203125q0.484375 0 1.28125 -0.125zm1.6971283 -2.53125l2.890625 -0.453125q0.25 1.734375 1.359375 2.671875q1.109375 0.921875 3.109375 0.921875q2.03125 0 3.0 -0.8125q0.984375 -0.828125 0.984375 -1.9375q0 -1.0 -0.875 -1.5625q-0.59375 -0.390625 -2.984375 -1.0q-3.234375 -0.8125 -4.484375 -1.40625q-1.234375 -0.59375 -1.875 -1.640625q-0.640625 -1.046875 -0.640625 -2.3125q0 -1.15625 0.53125 -2.140625q0.53125 -0.984375 1.4375 -1.640625q0.6875 -0.5 1.859375 -0.84375q1.1875 -0.359375 2.53125 -0.359375q2.03125 0 3.5625 0.59375q1.546875 0.578125 2.28125 1.578125q0.734375 1.0 1.015625 2.671875l-2.875 0.390625q-0.1875 -1.328125 -1.125 -2.078125q-0.9375 -0.75 -2.640625 -0.75q-2.03125 0 -2.890625 0.671875q-0.859375 0.65625 -0.859375 1.5625q0 0.5625 0.359375 1.015625q0.359375 0.484375 1.125 0.78125q0.4375 0.171875 2.578125 0.75q3.109375 0.828125 4.34375 1.359375q1.234375 0.53125 1.921875 1.546875q0.703125 1.0 0.703125 2.5q0 1.46875 -0.859375 2.765625q-0.84375 1.28125 -2.453125 2.0q-1.609375 0.703125 -3.65625 0.703125q-3.359375 0 -5.125 -1.390625q-1.765625 -1.40625 -2.25 -4.15625z" fill-rule="nonzero"/><defs><radialGradient id="p.2" gradientUnits="userSpaceOnUse" gradientTransform="matrix(13.517098144839292 0.0 0.0 13.517098144839292 0.0 0.0)" spreadMethod="pad" cx="19.811454029145903" cy="9.902242247613124" fx="19.811454029145903" fy="9.902242247613124" r="13.517098426818848"><stop offset="0.0" stop-color="#fff6db"/><stop offset="1.0" stop-color="#fad25c"/></radialGradient></defs><path fill="url(#p.2)" d="m138.59651 133.84958l0 0c0 -71.35345 57.8434 -129.19685 129.19685 -129.19685l0 0c34.265137 0 67.12686 13.611772 91.35596 37.84088c24.229126 24.229107 37.84088 57.09083 37.84088 91.35597l0 0c0 71.353455 -57.843384 129.19684 -129.19684 129.19684l0 0c-71.353455 0 -129.19685 -57.843384 -129.19685 -129.19684z" fill-rule="evenodd"/><path stroke="#000000" stroke-width="2.0" stroke-linejoin="round" stroke-linecap="butt" d="m138.59651 133.84958l0 0c0 -71.35345 57.8434 -129.19685 129.19685 -129.19685l0 0c34.265137 0 67.12686 13.611772 91.35596 37.84088c24.229126 24.229107 37.84088 57.09083 37.84088 91.35597l0 0c0 71.353455 -57.843384 129.19684 -129.19684 129.19684l0 0c-71.353455 0 -129.19685 -57.843384 -129.19685 -129.19684z" fill-rule="evenodd"/><path fill="#000000" d="m242.93605 97.490204l3.15625 0.796875q-1.0 3.890625 -3.578125 5.9375q-2.578125 2.03125 -6.296875 2.03125q-3.859375 0 -6.28125 -1.5625q-2.40625 -1.578125 -3.671875 -4.546875q-1.265625 -2.984375 -1.265625 -6.40625q0 -3.71875 1.421875 -6.5q1.421875 -2.78125 4.046875 -4.21875q2.640625 -1.4375 5.796875 -1.4375q3.578125 0 6.015625 1.828125q2.453125 1.8125 3.40625 5.125l-3.109375 0.734375q-0.828125 -2.609375 -2.40625 -3.796875q-1.578125 -1.1875 -3.96875 -1.1875q-2.75 0 -4.609375 1.328125q-1.84375 1.3125 -2.59375 3.53125q-0.734375 2.21875 -0.734375 4.578125q0 3.046875 0.875 5.3125q0.890625 2.265625 2.765625 3.390625q1.875 1.125 4.046875 1.125q2.65625 0 4.484375 -1.53125q1.84375 -1.53125 2.5 -4.53125zm6.646637 8.359375l0 -17.28125l2.625 0l0 2.625q1.015625 -1.84375 1.859375 -2.421875q0.859375 -0.59375 1.890625 -0.59375q1.4843597 0 2.9999847 0.9375l-1.0 2.71875q-1.078125 -0.625 -2.1562347 -0.625q-0.953125 0 -1.71875 0.578125q-0.765625 0.578125 -1.09375 1.59375q-0.484375 1.5625 -0.484375 3.421875l0 9.046875l-2.921875 0zm22.395401 -2.125q-1.625 1.375 -3.125 1.953125q-1.5 0.5625 -3.234375 0.5625q-2.84375 0 -4.375 -1.390625q-1.53125 -1.390625 -1.53125 -3.5625q0 -1.265625 0.578125 -2.3125q0.578125 -1.046875 1.515625 -1.671875q0.9375 -0.640625 2.109375 -0.96875q0.859375 -0.234375 2.59375 -0.4375q3.546875 -0.421875 5.234375 -1.015625q0.015625 -0.609375 0.015625 -0.765625q0 -1.78125 -0.828125 -2.515625q-1.125 -1.0 -3.34375 -1.0q-2.0625 0 -3.046875 0.734375q-0.984375 0.71875 -1.453125 2.546875l-2.875 -0.390625q0.390625 -1.828125 1.28125 -2.953125q0.90625 -1.140625 2.59375 -1.75q1.703125 -0.609375 3.921875 -0.609375q2.21875 0 3.59375 0.53125q1.390625 0.515625 2.03125 1.3125q0.65625 0.78125 0.921875 1.984375q0.140625 0.75 0.140625 2.703125l0 3.90625q0 4.078125 0.1875 5.15625q0.1875 1.078125 0.75 2.078125l-3.0625 0q-0.453125 -0.90625 -0.59375 -2.125zm-0.234375 -6.546875q-1.59375 0.65625 -4.78125 1.109375q-1.8125 0.25 -2.5625 0.578125q-0.75 0.328125 -1.15625 0.953125q-0.40625 0.625 -0.40625 1.390625q0 1.171875 0.890625 1.953125q0.890625 0.78125 2.59375 0.78125q1.6875 0 3.0 -0.734375q1.328125 -0.75 1.953125 -2.03125q0.46875 -0.984375 0.46875 -2.921875l0 -1.078125zm6.3323975 3.515625l2.890625 -0.453125q0.25 1.734375 1.359375 2.671875q1.109375 0.921875 3.109375 0.921875q2.03125 0 3.0 -0.8125q0.984375 -0.828125 0.984375 -1.9375q0 -1.0 -0.875 -1.5625q-0.59375 -0.390625 -2.984375 -1.0q-3.234375 -0.8125 -4.484375 -1.40625q-1.234375 -0.59375 -1.875 -1.640625q-0.640625 -1.046875 -0.640625 -2.3125q0 -1.15625 0.53125 -2.140625q0.53125 -0.984375 1.4375 -1.640625q0.6875 -0.5 1.859375 -0.84375q1.1875 -0.359375 2.53125 -0.359375q2.03125 0 3.5625 0.59375q1.546875 0.578125 2.28125 1.578125q0.734375 1.0 1.015625 2.671875l-2.875 0.390625q-0.1875 -1.328125 -1.125 -2.078125q-0.9375 -0.75 -2.640625 -0.75q-2.03125 0 -2.890625 0.671875q-0.859375 0.65625 -0.859375 1.5625q0 0.5625 0.359375 1.015625q0.359375 0.484375 1.125 0.78125q0.4375 0.171875 2.578125 0.75q3.109375 0.828125 4.34375 1.359375q1.234375 0.53125 1.921875 1.546875q0.703125 1.0 0.703125 2.5q0 1.46875 -0.859375 2.765625q-0.84375 1.28125 -2.453125 2.0q-1.609375 0.703125 -3.65625 0.703125q-3.359375 0 -5.125 -1.390625q-1.765625 -1.40625 -2.25 -4.15625zm17.835938 5.15625l0 -23.859375l2.921875 0l0 8.5625q2.046875 -2.375 5.171875 -2.375q1.921875 0 3.328125 0.765625q1.421875 0.75 2.03125 2.09375q0.625 1.328125 0.625 3.859375l0 10.953125l-2.9375 0l0 -10.953125q0 -2.203125 -0.953125 -3.203125q-0.953125 -1.0 -2.6875 -1.0q-1.3125 0 -2.453125 0.6875q-1.140625 0.671875 -1.640625 1.828125q-0.484375 1.15625 -0.484375 3.1875l0 9.453125l-2.921875 0z" fill-rule="nonzero"/><path fill="#000000" d="m230.9018 177.49019l3.15625 0.796875q-1.0 3.890625 -3.578125 5.9375q-2.578125 2.03125 -6.296875 2.03125q-3.859375 0 -6.28125 -1.5625q-2.40625 -1.578125 -3.671875 -4.546875q-1.265625 -2.984375 -1.265625 -6.40625q0 -3.71875 1.421875 -6.5q1.421875 -2.78125 4.046875 -4.21875q2.640625 -1.4375 5.796875 -1.4375q3.578125 0 6.015625 1.828125q2.453125 1.8125 3.40625 5.125l-3.109375 0.734375q-0.828125 -2.609375 -2.40625 -3.796875q-1.578125 -1.1875 -3.96875 -1.1875q-2.75 0 -4.609375 1.328125q-1.84375 1.3125 -2.59375 3.53125q-0.734375 2.21875 -0.734375 4.578125q0 3.046875 0.875 5.3125q0.890625 2.265625 2.765625 3.390625q1.875 1.125 4.046875 1.125q2.65625 0 4.484375 -1.53125q1.84375 -1.53125 2.5 -4.53125zm6.537262 15.015625l-0.328125 -2.75q0.96875 0.265625 1.6875 0.265625q0.96875 0 1.546875 -0.328125q0.59375 -0.328125 0.96875 -0.921875q0.28125 -0.4375 0.890625 -2.171875q0.09375 -0.25 0.265625 -0.71875l-6.5625 -17.3125l3.15625 0l3.609375 10.0q0.6875 1.90625 1.25 4.015625q0.5 -2.015625 1.203125 -3.9375l3.6875 -10.078125l2.9375 0l-6.578125 17.578125q-1.0625 2.84375 -1.640625 3.921875q-0.78125 1.4375 -1.796875 2.109375q-1.0 0.6875 -2.40625 0.6875q-0.84375 0 -1.890625 -0.359375zm16.804688 -6.65625l0 -17.28125l2.609375 0l0 2.421875q0.8125 -1.265625 2.15625 -2.03125q1.359375 -0.78125 3.09375 -0.78125q1.921875 0 3.140625 0.796875q1.234375 0.796875 1.734375 2.234375q2.046875 -3.03125 5.34375 -3.03125q2.5625 0 3.9375 1.421875q1.390625 1.421875 1.390625 4.390625l0 11.859375l-2.90625 0l0 -10.890625q0 -1.75 -0.296875 -2.515625q-0.28125 -0.78125 -1.03125 -1.25q-0.734375 -0.484375 -1.75 -0.484375q-1.828125 0 -3.03125 1.21875q-1.203125 1.21875 -1.203125 3.875l0 10.046875l-2.921875 0l0 -11.234375q0 -1.953125 -0.71875 -2.921875q-0.71875 -0.984375 -2.34375 -0.984375q-1.234375 0 -2.296875 0.65625q-1.046875 0.65625 -1.515625 1.90625q-0.46875 1.25 -0.46875 3.609375l0 8.96875l-2.921875 0zm30.450073 0l-2.703125 0l0 -23.859375l2.921875 0l0 8.515625q1.859375 -2.328125 4.734375 -2.328125q1.59375 0 3.015625 0.640625q1.421875 0.640625 2.34375 1.8125q0.921875 1.15625 1.4375 2.8125q0.53125 1.640625 0.53125 3.5q0 4.453125 -2.203125 6.875q-2.1875 2.421875 -5.265625 2.421875q-3.0625 0 -4.8125 -2.5625l0 2.171875zm-0.03125 -8.765625q0 3.109375 0.859375 4.484375q1.375 2.265625 3.734375 2.265625q1.921875 0 3.3125 -1.671875q1.40625 -1.671875 1.40625 -4.96875q0 -3.390625 -1.34375 -5.0q-1.34375 -1.609375 -3.25 -1.609375q-1.90625 0 -3.3125 1.671875q-1.40625 1.671875 -1.40625 4.828125zm27.144928 6.640625q-1.625 1.375 -3.125 1.953125q-1.5 0.5625 -3.234375 0.5625q-2.8437805 0 -4.3750305 -1.390625q-1.53125 -1.390625 -1.53125 -3.5625q0 -1.265625 0.578125 -2.3125q0.578125 -1.046875 1.515625 -1.671875q0.9375 -0.640625 2.109375 -0.96875q0.8594055 -0.234375 2.5937805 -0.4375q3.546875 -0.421875 5.234375 -1.015625q0.015625 -0.609375 0.015625 -0.765625q0 -1.78125 -0.828125 -2.515625q-1.125 -1.0 -3.34375 -1.0q-2.0625 0 -3.0469055 0.734375q-0.984375 0.71875 -1.453125 2.546875l-2.875 -0.390625q0.390625 -1.828125 1.28125 -2.953125q0.90625 -1.140625 2.59375 -1.75q1.7031555 -0.609375 3.9219055 -0.609375q2.21875 0 3.59375 0.53125q1.390625 0.515625 2.03125 1.3125q0.65625 0.78125 0.921875 1.984375q0.140625 0.75 0.140625 2.703125l0 3.90625q0 4.078125 0.1875 5.15625q0.1875 1.078125 0.75 2.078125l-3.0625 0q-0.453125 -0.90625 -0.59375 -2.125zm-0.234375 -6.546875q-1.59375 0.65625 -4.78125 1.109375q-1.8125 0.25 -2.5625305 0.578125q-0.75 0.328125 -1.15625 0.953125q-0.40625 0.625 -0.40625 1.390625q0 1.171875 0.890625 1.953125q0.8906555 0.78125 2.5937805 0.78125q1.6875 0 3.0 -0.734375q1.328125 -0.75 1.953125 -2.03125q0.46875 -0.984375 0.46875 -2.921875l0 -1.078125zm7.4261475 8.671875l0 -23.859375l2.9375 0l0 23.859375l-2.9375 0z" fill-rule="nonzero"/><defs><radialGradient id="p.3" gradientUnits="userSpaceOnUse" gradientTransform="matrix(14.005844240896815 0.0 0.0 14.005844240896815 0.0 0.0)" spreadMethod="pad" cx="58.82362021858653" cy="11.169029305646935" fx="58.82362021858653" fy="11.169029305646935" r="14.005844116210938"><stop offset="0.0" stop-color="#fff6db"/><stop offset="1.0" stop-color="#fad25c"/></radialGradient></defs><path fill="url(#p.3)" d="m685.1658 156.43169l0 0c0 -76.60668 62.10199 -138.70866 138.70868 -138.70866l0 0c36.78784 0 72.06891 14.613907 98.08185 40.626827c26.01294 26.01292 40.62683 61.29401 40.62683 98.08183l0 0c0 76.606674 -62.10199 138.70866 -138.70868 138.70866l0 0c-76.60669 0 -138.70868 -62.10199 -138.70868 -138.70866z" fill-rule="evenodd"/><path stroke="#000000" stroke-width="2.0" stroke-linejoin="round" stroke-linecap="butt" d="m685.1658 156.43169l0 0c0 -76.60668 62.10199 -138.70866 138.70868 -138.70866l0 0c36.78784 0 72.06891 14.613907 98.08185 40.626827c26.01294 26.01292 40.62683 61.29401 40.62683 98.08183l0 0c0 76.606674 -62.10199 138.70866 -138.70868 138.70866l0 0c-76.60669 0 -138.70868 -62.10199 -138.70868 -138.70866z" fill-rule="evenodd"/><path fill="#000000" d="m792.2275 128.43169l0 -23.859383l10.578125 0q3.1875 0 4.84375 0.640625q1.65625 0.640625 2.640625 2.28125q1.0 1.625 1.0 3.59375q0 2.53125 -1.640625 4.28125q-1.640625 1.734375 -5.078125 2.203125q1.25 0.609375 1.90625 1.1875q1.390625 1.28125 2.625 3.171875l4.140625 6.5000076l-3.96875 0l-3.15625 -4.9687576q-1.375 -2.140625 -2.28125 -3.28125q-0.890625 -1.140625 -1.609375 -1.59375q-0.703125 -0.453125 -1.421875 -0.640625q-0.546875 -0.109375 -1.765625 -0.109375l-3.65625 0l0 10.593758l-3.15625 0zm3.15625 -13.328133l6.78125 0q2.171875 0 3.390625 -0.4375q1.21875 -0.453125 1.84375 -1.4375q0.640625 -0.984375 0.640625 -2.140625q0 -1.703125 -1.234375 -2.78125q-1.21875 -1.09375 -3.875 -1.09375l-7.546875 0l0 7.890625zm20.505981 -7.15625l0 -3.375l2.921875 0l0 3.375l-2.921875 0zm0 20.484383l0 -17.281258l2.921875 0l0 17.281258l-2.921875 0zm18.59198 0l0 -2.1875076q-1.640625 2.5781326 -4.828125 2.5781326q-2.0625 0 -3.796875 -1.1406326q-1.734375 -1.140625 -2.6875 -3.171875q-0.953125 -2.046875 -0.953125 -4.703125q0 -2.59375 0.859375 -4.6875q0.859375 -2.109375 2.578125 -3.234375q1.734375 -1.125 3.875 -1.125q1.5625 0 2.78125 0.65625q1.21875 0.65625 1.984375 1.71875l0 -8.5625l2.90625 0l0 23.859383l-2.71875 0zm-9.25 -8.625008q0 3.3125 1.390625 4.96875q1.40625 1.640625 3.3125 1.640625q1.90625 0 3.25 -1.5625q1.34375 -1.578125 1.34375 -4.796875q0 -3.546875 -1.375 -5.203125q-1.359375 -1.671875 -3.359375 -1.671875q-1.953125 0 -3.265625 1.59375q-1.296875 1.59375 -1.296875 5.03125zm28.410522 3.0625l3.015625 0.375q-0.703125 2.65625 -2.640625 4.125q-1.9375 1.4531326 -4.953125 1.4531326q-3.796875 0 -6.015625 -2.3281326q-2.21875 -2.34375 -2.21875 -6.5625q0 -4.359375 2.25 -6.765625q2.25 -2.40625 5.828125 -2.40625q3.46875 0 5.65625 2.359375q2.203125 2.359375 2.203125 6.640625q0 0.265625 -0.015625 0.78125l-12.890625 0q0.15625 2.84375 1.609375 4.359375q1.453125 1.515625 3.609375 1.515625q1.609375 0 2.75 -0.84375q1.140625 -0.84375 1.8125 -2.703125zm-9.625 -4.734375l9.65625 0q-0.203125 -2.1875 -1.109375 -3.28125q-1.40625 -1.6875 -3.625 -1.6875q-2.015625 0 -3.390625 1.359375q-1.375 1.34375 -1.53125 3.609375z" fill-rule="nonzero"/><path fill="#000000" d="m786.9829 200.07231l3.15625 0.796875q-1.0 3.890625 -3.578125 5.9375q-2.578125 2.03125 -6.296875 2.03125q-3.859375 0 -6.28125 -1.5625q-2.40625 -1.578125 -3.671875 -4.546875q-1.265625 -2.984375 -1.265625 -6.40625q0 -3.71875 1.421875 -6.5q1.421875 -2.78125 4.046875 -4.21875q2.640625 -1.4375 5.796875 -1.4375q3.578125 0 6.015625 1.828125q2.453125 1.8125 3.40625 5.125l-3.109375 0.734375q-0.828125 -2.609375 -2.40625 -3.796875q-1.578125 -1.1875 -3.96875 -1.1875q-2.75 0 -4.609375 1.328125q-1.84375 1.3125 -2.59375 3.53125q-0.734375 2.21875 -0.734375 4.578125q0 3.046875 0.875 5.3125q0.890625 2.265625 2.765625 3.390625q1.875 1.125 4.046875 1.125q2.65625 0 4.484375 -1.53125q1.84375 -1.53125 2.5 -4.53125zm6.5372314 15.015625l-0.328125 -2.75q0.96875 0.265625 1.6875 0.265625q0.96875 0 1.546875 -0.328125q0.59375 -0.328125 0.96875 -0.921875q0.28125 -0.4375 0.890625 -2.171875q0.09375 -0.25 0.265625 -0.71875l-6.5625 -17.3125l3.15625 0l3.609375 10.0q0.6875 1.90625 1.25 4.015625q0.5 -2.015625 1.203125 -3.9375l3.6875 -10.078125l2.9375 0l-6.578125 17.578125q-1.0625 2.84375 -1.640625 3.921875q-0.78125 1.4375 -1.796875 2.109375q-1.0 0.6875 -2.40625 0.6875q-0.84375 0 -1.890625 -0.359375zm16.804688 -6.65625l0 -17.28125l2.609375 0l0 2.421875q0.8125 -1.265625 2.15625 -2.03125q1.359375 -0.78125 3.09375 -0.78125q1.921875 0 3.140625 0.796875q1.234375 0.796875 1.734375 2.234375q2.046875 -3.03125 5.34375 -3.03125q2.5625 0 3.9375 1.421875q1.390625 1.421875 1.390625 4.390625l0 11.859375l-2.90625 0l0 -10.890625q0 -1.75 -0.296875 -2.515625q-0.28125 -0.78125 -1.03125 -1.25q-0.734375 -0.484375 -1.75 -0.484375q-1.828125 0 -3.03125 1.21875q-1.203125 1.21875 -1.203125 3.875l0 10.046875l-2.921875 0l0 -11.234375q0 -1.953125 -0.71875 -2.921875q-0.71875 -0.984375 -2.34375 -0.984375q-1.234375 0 -2.296875 0.65625q-1.046875 0.65625 -1.515625 1.90625q-0.46875 1.25 -0.46875 3.609375l0 8.96875l-2.921875 0zm30.450073 0l-2.703125 0l0 -23.859375l2.921875 0l0 8.515625q1.859375 -2.328125 4.734375 -2.328125q1.59375 0 3.015625 0.640625q1.421875 0.640625 2.34375 1.8125q0.921875 1.15625 1.4375 2.8125q0.53125 1.640625 0.53125 3.5q0 4.453125 -2.203125 6.875q-2.1875 2.421875 -5.265625 2.421875q-3.0625 0 -4.8125 -2.5625l0 2.171875zm-0.03125 -8.765625q0 3.109375 0.859375 4.484375q1.375 2.265625 3.734375 2.265625q1.921875 0 3.3125 -1.671875q1.40625 -1.671875 1.40625 -4.96875q0 -3.390625 -1.34375 -5.0q-1.34375 -1.609375 -3.25 -1.609375q-1.90625 0 -3.3125 1.671875q-1.40625 1.671875 -1.40625 4.828125zm27.144897 6.640625q-1.625 1.375 -3.125 1.953125q-1.5 0.5625 -3.234375 0.5625q-2.84375 0 -4.375 -1.390625q-1.53125 -1.390625 -1.53125 -3.5625q0 -1.265625 0.578125 -2.3125q0.578125 -1.046875 1.515625 -1.671875q0.9375 -0.640625 2.109375 -0.96875q0.859375 -0.234375 2.59375 -0.4375q3.546875 -0.421875 5.234375 -1.015625q0.015625 -0.609375 0.015625 -0.765625q0 -1.78125 -0.828125 -2.515625q-1.125 -1.0 -3.34375 -1.0q-2.0625 0 -3.046875 0.734375q-0.984375 0.71875 -1.453125 2.546875l-2.875 -0.390625q0.390625 -1.828125 1.28125 -2.953125q0.90625 -1.140625 2.59375 -1.75q1.703125 -0.609375 3.921875 -0.609375q2.21875 0 3.59375 0.53125q1.390625 0.515625 2.03125 1.3125q0.65625 0.78125 0.921875 1.984375q0.140625 0.75 0.140625 2.703125l0 3.90625q0 4.078125 0.1875 5.15625q0.1875 1.078125 0.75 2.078125l-3.0625 0q-0.453125 -0.90625 -0.59375 -2.125zm-0.234375 -6.546875q-1.59375 0.65625 -4.78125 1.109375q-1.8125 0.25 -2.5625 0.578125q-0.75 0.328125 -1.15625 0.953125q-0.40625 0.625 -0.40625 1.390625q0 1.171875 0.890625 1.953125q0.890625 0.78125 2.59375 0.78125q1.6875 0 3.0 -0.734375q1.328125 -0.75 1.953125 -2.03125q0.46875 -0.984375 0.46875 -2.921875l0 -1.078125zm7.4261475 8.671875l0 -23.859375l2.9375 0l0 23.859375l-2.9375 0z" fill-rule="nonzero"/><path fill="#000000" d="m116.55662 369.03226l0 0c0 -2.4526672 1.9882736 -4.4409485 4.440941 -4.4409485l0 0c1.1778107 0 2.3073807 0.4678955 3.1402206 1.3007202c0.83283997 0.8328552 1.3007278 1.9624329 1.3007278 3.1402283l0 0c0 2.4526672 -1.9882812 4.4409485 -4.4409485 4.4409485l0 0c-2.4526672 0 -4.440941 -1.9882812 -4.440941 -4.4409485z" fill-rule="evenodd"/><path stroke="#000000" stroke-width="2.0" stroke-linejoin="round" stroke-linecap="butt" d="m116.55662 369.03226l0 0c0 -2.4526672 1.9882736 -4.4409485 4.440941 -4.4409485l0 0c1.1778107 0 2.3073807 0.4678955 3.1402206 1.3007202c0.83283997 0.8328552 1.3007278 1.9624329 1.3007278 3.1402283l0 0c0 2.4526672 -1.9882812 4.4409485 -4.4409485 4.4409485l0 0c-2.4526672 0 -4.440941 -1.9882812 -4.440941 -4.4409485z" fill-rule="evenodd"/><path fill="#000000" d="m263.34622 133.84325l0 0c0 -2.4526672 1.9882812 -4.4409485 4.4409485 -4.4409485l0 0c1.1777954 0 2.307373 0.46788025 3.1401978 1.3007202c0.8328552 0.83283997 1.3007507 1.9624023 1.3007507 3.1402283l0 0c0 2.452652 -1.9882812 4.440933 -4.4409485 4.440933l0 0c-2.4526672 0 -4.4409485 -1.9882812 -4.4409485 -4.440933z" fill-rule="evenodd"/><path stroke="#000000" stroke-width="2.0" stroke-linejoin="round" stroke-linecap="butt" d="m263.34622 133.84325l0 0c0 -2.4526672 1.9882812 -4.4409485 4.4409485 -4.4409485l0 0c1.1777954 0 2.307373 0.46788025 3.1401978 1.3007202c0.8328552 0.83283997 1.3007507 1.9624023 1.3007507 3.1402283l0 0c0 2.452652 -1.9882812 4.440933 -4.4409485 4.440933l0 0c-2.4526672 0 -4.4409485 -1.9882812 -4.4409485 -4.440933z" fill-rule="evenodd"/><path fill="#000000" d="m819.43866 156.43666l0 0c0 -2.4526672 1.9882812 -4.4409485 4.440918 -4.4409485l0 0c1.1777954 0 2.307373 0.46788025 3.1401978 1.3007202c0.83288574 0.83283997 1.3007202 1.9624176 1.3007202 3.1402283l0 0c0 2.4526672 -1.9882202 4.4409485 -4.440918 4.4409485l0 0c-2.4526367 0 -4.440918 -1.9882812 -4.440918 -4.4409485z" fill-rule="evenodd"/><path stroke="#000000" stroke-width="2.0" stroke-linejoin="round" stroke-linecap="butt" d="m819.43866 156.43666l0 0c0 -2.4526672 1.9882812 -4.4409485 4.440918 -4.4409485l0 0c1.1777954 0 2.307373 0.46788025 3.1401978 1.3007202c0.83288574 0.83283997 1.3007202 1.9624176 1.3007202 3.1402283l0 0c0 2.4526672 -1.9882202 4.4409485 -4.440918 4.4409485l0 0c-2.4526367 0 -4.440918 -1.9882812 -4.440918 -4.4409485z" fill-rule="evenodd"/></g></svg>